<?xml version="1.0" encoding="utf-8"?>
<svg xmlns="http://www.w3.org/2000/svg">
<symbol id="mark-github" viewBox="0 0 16 16"><path fill-rule="evenodd" d="M8 0C3.58 0 0 3.58 0 8c0 3.54 2.29 6.53 5.47 7.59.4.07.55-.17.55-.38 0-.19-.01-.82-.01-1.49-2.01.37-2.53-.49-2.69-.94-.09-.23-.48-.94-.82-1.13-.28-.15-.68-.52-.01-.53.63-.01 1.08.58 1.23.82.72 1.21 1.87.87 2.33.66.07-.52.28-.87.51-1.07-1.78-.2-3.64-.89-3.64-3.95 0-.87.31-1.59.82-2.15-.08-.2-.36-1.02.08-2.12 0 0 .67-.21 2.2.82.64-.18 1.32-.27 2-.27.68 0 1.36.09 2 .27 1.53-1.04 2.2-.82 2.2-.82.44 1.1.16 1.92.08 2.12.51.56.82 1.27.82 2.15 0 3.07-1.87 3.75-3.65 3.95.29.25.54.73.54 1.48 0 1.07-.01 1.93-.01 2.2 0 .21.15.46.55.38A8.013 8.013 0 0 0 16 8c0-4.42-3.58-8-8-8z"/>
</symbol>
<symbol id="repo" viewBox="0 0 12 16"><path fill-rule="evenodd" d="M4 9H3V8h1v1zm0-3H3v1h1V6zm0-2H3v1h1V4zm0-2H3v1h1V2zm8-1v12c0 .55-.45 1-1 1H6v2l-1.5-1.5L3 16v-2H1c-.55 0-1-.45-1-1V1c0-.55.45-1 1-1h10c.55 0 1 .45 1 1zm-1 10H1v2h2v-1h3v1h5v-2zm0-10H2v9h9V1z"/>
</symbol>
<symbol id="issue-opened" viewBox="0 0 14 16"><path fill-rule="evenodd" d="M7 2.3c3.14 0 5.7 2.56 5.7 5.7s-2.56 5.7-5.7 5.7A5.71 5.71 0 0 1 1.3 8c0-3.14 2.56-5.7 5.7-5.7zM7 1C3.14 1 0 4.14 0 8s3.14 7 7 7 7-3.14 7-7-3.14-7-7-7zm1 3H6v5h2V4zm0 6H6v2h2v-2z"/>
</symbol>
<symbol id="linkedin" viewBox="0 0 64 64">
    <path fill="#fff" d="M10.305 11.119h43.119v42.847H10.305z"/>
    <path d="M12.8 51.2V24.384h8.192V51.2H12.8m8.448-34.24c.064 2.304-1.664 4.16-4.416 4.16-2.56 0-4.224-1.856-4.224-4.16 0-2.368 1.728-4.16 4.352-4.16s4.288 1.792 4.288 4.16M42.752 51.2V36.352c0-3.456-1.152-5.824-4.16-5.824-2.24 0-3.584 1.6-4.224 3.136-.192.576-.256 1.344-.256 2.112V51.2H25.92V32.96c0-3.328-.128-6.144-.192-8.576h7.104l.384 3.776h.128c1.088-1.792 3.776-4.352 8.192-4.352 5.376 0 9.472 3.648 9.472 11.584V51.2h-8.256M64 5.632C64 2.56 61.44 0 58.368 0H5.632C2.56 0 0 2.56 0 5.632v52.736C0 61.44 2.56 64 5.632 64h52.736C61.44 64 64 61.44 64 58.368V5.632" fill="#1d87bd"/>

</symbol>
<symbol id="twitter" viewBox="0 0 341.7375 277.725">
    <path fill="#6babe1" d="M107.475 277.72C67.88 277.72 31.03 266.113 0 246.22c5.485.65 11.066.98 16.725.98 32.847 0 63.08-11.21 87.074-30.013-30.68-.566-56.574-20.836-65.495-48.69a70.083 70.083 0 0 0 13.19 1.256c6.395 0 12.59-.856 18.473-2.458-32.074-6.44-56.242-34.778-56.242-68.748 0-.296 0-.588.006-.88a69.83 69.83 0 0 0 31.756 8.768c-18.812-12.573-31.19-34.033-31.19-58.356 0-12.85 3.457-24.894 9.492-35.25 34.58 42.42 86.24 70.33 144.512 73.255a70.387 70.387 0 0 1-1.816-15.978c0-38.718 31.393-70.11 70.114-70.11 20.165 0 38.386 8.515 51.176 22.142a140.382 140.382 0 0 0 44.52-17.016c-5.233 16.372-16.35 30.112-30.826 38.79 14.182-1.695 27.695-5.464 40.27-11.04-9.4 14.06-21.29 26.408-34.986 36.293.135 3.007.202 6.03.202 9.07 0 92.65-70.52 199.488-199.475 199.488"/>

</symbol>
<symbol id="google+" viewBox="0 0 134.658 131.646">
    <path fill="#DC4A38" d="M126.52 4.11H8.14A3.938 3.938 0 0 0 4.2 8.046v115.55a3.94 3.94 0 0 0 3.94 3.942h118.37a3.94 3.94 0 0 0 3.94-3.943V8.057c0-2.176-1.77-3.94-3.94-3.94z"/>
    <path fill="#FFF" d="M70.48 71.845l-3.984-3.093c-1.213-1.006-2.872-2.334-2.872-4.765 0-2.44 1.66-3.993 3.1-5.43 4.64-3.652 9.275-7.54 9.275-15.73 0-8.423-5.3-12.854-7.84-14.956h6.848l7.19-4.516h-21.78c-5.976 0-14.588 1.414-20.893 6.62-4.752 4.1-7.07 9.752-7.07 14.84 0 8.64 6.633 17.397 18.346 17.397 1.107 0 2.317-.108 3.535-.22-.547 1.33-1.1 2.438-1.1 4.32 0 3.43 1.763 5.534 3.317 7.527-4.977.342-14.268.893-21.117 5.103-6.523 3.88-8.508 9.525-8.508 13.51 0 8.202 7.73 15.842 23.762 15.842 19.01 0 29.073-10.52 29.073-20.932 0-7.65-4.42-11.415-9.284-15.513zM56 59.107c-9.51 0-13.818-12.294-13.818-19.712 0-2.888.547-5.87 2.428-8.2 1.773-2.217 4.86-3.656 7.744-3.656 9.168 0 13.923 12.403 13.923 20.38 0 1.997-.22 5.534-2.762 8.09-1.778 1.775-4.753 3.097-7.515 3.097zm.11 44.543c-11.827 0-19.453-5.657-19.453-13.523 0-7.864 7.07-10.524 9.504-11.405 4.64-1.56 10.612-1.78 11.608-1.78 1.105 0 1.658 0 2.538.112 8.407 5.983 12.056 8.965 12.056 14.63 0 6.858-5.64 11.966-16.253 11.966zm42.283-44.712V47.863h-5.47v11.075H81.866v5.53h11.057v11.144h5.47V64.47h11.117v-5.532z"/>

</symbol>
<symbol id="codepen" viewBox="0 0 256 256">
    <path d="M255.807 87.087c-.059-.31-.11-.62-.193-.924-.052-.183-.114-.355-.172-.535a11.007 11.007 0 0 0-.283-.8c-.076-.182-.162-.358-.245-.534a9.74 9.74 0 0 0-.376-.73c-.096-.176-.207-.342-.313-.51a11.038 11.038 0 0 0-.842-1.142 11.166 11.166 0 0 0-.544-.596c-.145-.145-.29-.29-.442-.431a9.07 9.07 0 0 0-.624-.52c-.165-.128-.327-.26-.5-.377-.061-.044-.117-.096-.182-.138l-116.992-78a10.989 10.989 0 0 0-12.201 0l-117 77.998c-.065.041-.116.093-.182.138-.172.12-.334.248-.5.376a15.52 15.52 0 0 0-.624.517 8.604 8.604 0 0 0-.438.43c-.193.194-.372.39-.548.597a6.88 6.88 0 0 0-.376.483c-.165.217-.317.438-.465.669-.107.169-.214.334-.314.51a9.593 9.593 0 0 0-.372.724c-.083.176-.172.355-.245.534-.107.262-.2.531-.286.8-.058.18-.12.355-.169.517-.08.303-.138.61-.193.924-.03.159-.069.314-.09.476-.062.475-.096.951-.096 1.437v78.016c0 .482.034.965.103 1.437.025.173.07.31.104.476.055.31.103.62.207.931.048.172.103.345.172.534.086.276.172.552.276.804.072.172.172.344.241.517.114.241.242.482.38.734.096.172.206.345.31.503.148.242.31.449.482.655.121.173.242.31.38.476.175.207.344.414.551.597.141.137.276.31.448.413.2.173.414.345.62.524.166.138.346.242.483.376.066.034.104.103.173.134l116.968 78.04a10.815 10.815 0 0 0 6.102 1.851 11.06 11.06 0 0 0 6.102-1.85l117-78c.065-.04.12-.089.182-.134.172-.12.334-.248.5-.375.214-.17.424-.345.624-.524.151-.135.296-.283.441-.428a9.876 9.876 0 0 0 .92-1.072 14.55 14.55 0 0 0 .78-1.172c.138-.242.258-.486.375-.734.083-.176.17-.352.245-.531.107-.266.197-.535.283-.804.058-.179.12-.355.172-.534.08-.303.135-.614.193-.924.028-.159.07-.314.086-.476.063-.475.097-.951.097-1.437V89c0-.486-.038-.962-.097-1.438-.027-.169-.079-.306-.113-.475h.017zm-127.81 66.935l-38.905-26.021 38.905-26.025 38.907 26.025-38.907 26.021zm-10.998-71.155l-47.692 31.9L30.81 89.013 117 31.555v51.312zm-67.477 45.13l-27.517 18.406v-36.811l27.517 18.405zm19.785 13.245L117 173.138v51.312l-86.19-57.465 38.498-25.75v.007zm69.69 31.89l47.692-31.896 38.501 25.749-86.193 57.458v-51.312zm67.477-45.128l27.521-18.409v36.815l-27.52-18.413v.007zm-19.785-13.238L138.997 82.87V31.555l86.193 57.459-38.5 25.752z" fill="#ccc"/>

</symbol>
<symbol id="stackoverflow" viewBox="0 0 88.969391 113.4281">
    <path d="M63.277 72.606L19.852 62.073l2.107-8.685L65.384 63.92l-2.107 8.686m2.911-10.39l-39.79-20.332 4.066-7.958 39.79 20.332-4.066 7.958m6.129-10.764l-33.65-29.399 5.88-6.73 33.65 29.398-5.88 6.73m9.258-9.46L56.482 5.018 63.877 0 88.97 36.971l-7.395 5.019M62.582 83.469l-44.618-2.436.487-8.924 44.618 2.437-.487 8.923" fill="#e5712a"/>
    <path d="M71.833 104.49V67.467h8.929l.006 45.962H0l.002-46.001H8.94v37.062h62.894" fill="#999"/>
    <path d="M17.84 86.651h44.987v8.937H17.84z" fill="#e5712a"/>

</symbol>
<symbol id="top" viewBox="0 0 16 16">
    <title>
        Gnome Symbolic Icon Theme
    </title>
    <g transform="translate(-221 -747)">
        <rect transform="matrix(0 -1 -1 0 0 0)" x="-752" y="-235" width="2" height="12" rx="0" ry="0"/>
        <path d="M229 752.56l-5.719 5.719a1.01 1.01 0 0 0-.281.719v1h1c.256 0 .523-.086.719-.282l4.28-4.28 4.282 4.28c.196.196.463.282.719.282h1v-1a1.01 1.01 0 0 0-.281-.72z"/>
    </g>

</symbol>
<symbol id="bottom" viewBox="0 0 16 16">
    <title>
        Gnome Symbolic Icon Theme
    </title>
    <g transform="translate(-161 -747)">
        <rect transform="rotate(90)" x="758" y="-175" width="2" height="12" rx="0" ry="0"/>
        <path d="M169 757.44l-5.719-5.719a1.01 1.01 0 0 1-.281-.719v-1h1c.256 0 .523.086.719.282l4.28 4.28 4.282-4.28a1.01 1.01 0 0 1 .719-.282h1v1c0 .256-.086.523-.281.72z"/>
    </g>

</symbol>
<symbol id="next" viewBox="0 0 16 16">
    <title>
        Gnome Symbolic Icon Theme
    </title>
    <path d="M11.44 8l-5.719 5.719a1.01 1.01 0 0 1-.719.281h-1v-1c0-.256.086-.523.282-.719l4.28-4.28-4.28-4.282A1.01 1.01 0 0 1 4.002 3V2h1c.256 0 .523.086.72.281z"/>

</symbol>
<symbol id="prev" viewBox="0 0 16 16">
    <title>
        Gnome Symbolic Icon Theme
    </title>
    <path d="M4.56 8l5.719 5.719c.196.196.463.281.719.281h1v-1a1.01 1.01 0 0 0-.282-.719l-4.28-4.28 4.28-4.282A1.01 1.01 0 0 0 11.998 3V2h-1a1.01 1.01 0 0 0-.72.281z"/>

</symbol>
<symbol id="plus" viewBox="0 0 16 16">
    <title>
        Gnome Symbolic Icon Theme
    </title>
    <path d="M7 3v4H3v2h4v4h2V9h4V7H9V3z"/>

</symbol>
<symbol id="minus" viewBox="0 0 16 16">
    <title>
        Gnome Symbolic Icon Theme
    </title>
    <path d="M3 7h10v2H3z"/>

</symbol>
<symbol id="refresh" viewBox="0 0 16 16">
    <title>
        Gnome Symbolic Icon Theme
    </title>
    <path d="M6.72 2c-.192.009-.372.035-.563.063A6.03 6.03 0 0 0 2.19 4.405C.207 7.048.766 10.831 3.407 12.813c2.642 1.98 6.425 1.422 8.407-1.22.122-.17.189-.382.187-.593v-1h-1a1.024 1.024 0 0 0-.812.406c-1.333 1.777-3.817 2.114-5.594.781C2.818 9.855 2.48 7.37 3.814 5.594 5.146 3.817 7.63 3.48 9.407 4.812c.43.323.77.733 1.032 1.188H9a1 1 0 0 0-1 1v1h6V2h-1a1 1 0 0 0-1 1v1.687A5.966 5.966 0 0 0 6.72 2z"/>

</symbol>
<symbol id="share" viewBox="0 0 16 16">
    <title>
        Gnome Symbolic Icon Theme
    </title>
    <g>
        <path d="M5.969 7.969a2.969 2.969 0 1 1-5.938 0 2.969 2.969 0 1 1 5.938 0zm9.969 5a2.969 2.969 0 1 1-5.938 0 2.969 2.969 0 1 1 5.938 0zm0-10a2.969 2.969 0 1 1-5.938 0 2.969 2.969 0 1 1 5.938 0z" overflow="visible"/>
        <path d="M12.625 2.156L2.562 7.031.75 7.938l1.812.906 10.032 5.062.906-1.812-8.22-4.156 8.219-4-.875-1.782z" overflow="visible"/>
    </g>

</symbol>
<symbol id="close" viewBox="0 0 16 16">
    <title>
        Gnome Symbolic Icon Theme
    </title>
    <path d="M4 4h1.031c.255.011.51.129.688.313L8 6.592l2.313-2.28c.265-.231.446-.306.687-.313h1v1c0 .286-.034.55-.25.75L9.469 8.031l2.25 2.25c.188.188.281.454.281.719v1h-1c-.265 0-.53-.093-.719-.281L8 9.438l-2.281 2.28A1.015 1.015 0 0 1 5 12H4v-1c0-.265.093-.53.281-.719l2.282-2.25L4.28 5.75A.909.909 0 0 1 4 5V4z"/>

</symbol>
<symbol id="avatar-default" viewBox="0 0 16 16">
    <title>
        Gnome Symbolic Icon Theme
    </title>
    <g>
        <path d="M10.555 8.094C9.849 8.717 9.015 9 8 9c-1.016 0-1.853-.29-2.559-.914-1.109.363-2.436 1.288-2.437 2.902L3 14c0 .554.446 1 1 1h8c.554 0 1-.446 1-1v-3c0-1.387-1.102-2.556-2.445-2.906z"/>
        <path d="M11 5a3 3 0 1 1-6 0 3 3 0 1 1 6 0z" overflow="visible"/>
    </g>

</symbol>
<symbol id="call-start" viewBox="0 0 16 16">
    <title>
        Gnome Symbolic Icon Theme
    </title>
    <path d="M13.032 1c.534 0 .969.427.969.969v.062c-.017 6.613-5.383 11.97-12 11.97H1.97c-.545 0-.97-.447-.97-1v-3c0-.555.447-1 1-1h2c.555 0 1 .445 1 1v.468A8.967 8.967 0 0 0 10.47 5H10c-.553 0-1-.446-1-1V2c0-.554.447-1 1-1h3.032z"/>

</symbol>
<symbol id="web-browser" viewBox="0 0 16 16.004">
    <title>
        Gnome Symbolic Icon Theme
    </title>
    <g>
        <path d="M8 4.846v10.38l-2.344-2.288-1.34 2.734c-.327.74-2.033.145-1.548-.844l1.326-2.839H1.136L8 4.846z" display="block" overflow="visible"/>
        <path d="M7.156 1.063C3.33 1.522.578 5.02 1.063 8.843c.131 1.035.293 1.383.293 1.383l1.675-1.632A4.992 4.992 0 0 1 7.406 3.03a4.992 4.992 0 0 1 5.563 4.375c.314 2.608-1.391 5.025-3.969 5.532l.031 2s.521-.106.624-.131c3.416-.834 5.706-4.128 5.283-7.65-.46-3.827-3.955-6.555-7.782-6.095z" overflow="visible"/>
        <path d="M4.113 7.815v-.206l-.198.019.05-.393h-.117l-.115.15-.116.056-.165-.093-.017-.206.033-.225.248-.186h.199l.033-.113.247.056.182.225.033-.374.314-.262.116-.28.231-.094.133-.187.297-.056.149-.225h-.446l.28-.13h.199l.28-.094.034-.112-.1-.094-.115-.037.033-.112-.083-.169-.198.075.033-.15-.231-.13-.182.317.017.113-.182.075-.116.243-.05-.225-.313-.13-.05-.169.413-.243.182-.168.017-.206-.1-.056L4.84 4l-.082.206s-.139.027-.174.036C4.13 4.66 3.214 5.562 3 7.266c.008.04.155.268.155.268l.347.206.347.093m3.966-4.3l-.43-.168-.496.056-.611.168-.116.112.38.262v.15l-.149.15.199.392.132-.075.165-.262a5.51 5.51 0 0 0 .727-.28l.199-.505m2.529.342l-.375.094-.219.156v.125l-.375.25.094.344.219-.157.125.157.156.093.094-.28L10 4.5l.063-.094.218-.187h.094l-.094.218v.188c.09-.024.16-.051.25-.063l-.25.188v.125l-.312.219-.281-.063v-.156l-.125.062.062.157h-.219l-.125.218-.156.157-.094.03v.188l.032.157H9.03v.53l.063-.03.094-.219L9.375 6l.031-.094.282-.062.156.187.187.094-.093.187.156-.03.062-.22-.187-.218h.062l.22.156.03.219.157.219.062-.313.094-.031c.096.1.169.231.25.344h.281l.188.125-.094.093-.156.157h-.25l-.344-.094h-.188l-.125.156-.343-.375-.25-.062-.375.062-.157.094V9l.032.031.25-.156.093.094h.281l.125.156-.093.312.187.188V10l.125.25-.093.25c-.01.161 0 .307 0 .469.08.219.143.435.218.656l.063.344v.187h.125l.219-.125h.25l.375-.437-.032-.157.25-.218-.187-.188.219-.187.218-.125.094-.125-.062-.25V9.75l.187-.375.188-.25.25-.563v-.156c-.117.015-.23.023-.344.031-.072.005-.145 0-.219 0a7.442 7.442 0 0 1-.312-.78l-.157-.188-.093-.313.062-.062.219.25.25.562.156.156-.062.22.156.155.25-.25.312-.218.157-.188v-.219c-.04-.073-.055-.145-.094-.218l-.156.187-.125-.156-.188-.125v-.281l.219.218.219-.03c.101.091.192.207.28.312L13 7.28c0-.174-.2-1.02-.625-1.75S11.22 4.125 11.22 4.125l-.063.094-.218.218-.25-.25h.25l.125-.125-.47-.093-.25-.094z" opacity=".3" overflow="visible"/>
    </g>

</symbol>
<symbol id="link" viewBox="0 0 16 16"><path fill-rule="evenodd" d="M4 9h1v1H4c-1.5 0-3-1.69-3-3.5S2.55 3 4 3h4c1.45 0 3 1.69 3 3.5 0 1.41-.91 2.72-2 3.25V8.59c.58-.45 1-1.27 1-2.09C10 5.22 8.98 4 8 4H4c-.98 0-2 1.22-2 2.5S3 9 4 9zm9-3h-1v1h1c1 0 2 1.22 2 2.5S13.98 12 13 12H9c-.98 0-2-1.22-2-2.5 0-.83.42-1.64 1-2.09V6.25c-1.09.53-2 1.84-2 3.25C6 11.31 7.55 13 9 13h4c1.45 0 3-1.69 3-3.5S14.5 6 13 6z"/>
</symbol>
<symbol id="link-external" viewBox="0 0 12 16"><path fill-rule="evenodd" d="M11 10h1v3c0 .55-.45 1-1 1H1c-.55 0-1-.45-1-1V3c0-.55.45-1 1-1h3v1H1v10h10v-3zM6 2l2.25 2.25L5 7.5 6.5 9l3.25-3.25L12 8V2H6z"/>
</symbol>
<symbol id="mail-unread" viewBox="0 0 16 16">
    <title>
        Gnome Symbolic Icon Theme
    </title>
    <g>
        <path d="M2.781 4a1 1 0 0 0-.406 1.781l5 4 .625.5.625-.5 5-4a1 1 0 1 0-1.25-1.562L8 7.719l-4.375-3.5A1 1 0 0 0 2.781 4z" overflow="visible"/>
        <path d="M1.906 3A1 1 0 0 0 1 4v9a1 1 0 0 0 1 1h12a1 1 0 0 0 1-1V4a1 1 0 0 0-1-1H2a1 1 0 0 0-.094 0zM3 5h10v7H3V5z" overflow="visible"/>
    </g>

</symbol>
<symbol id="menu" viewBox="0 0 16 16">
    <title>
        Gnome Symbolic Icon Theme
    </title>
    <path d="M3 3h10v2H3zM3 7h10v2H3zM3 11h10v2H3z"/>

</symbol>
<symbol id="preferences" viewBox="0 0 16 16">
    <title>
        Gnome Symbolic Icon Theme
    </title>
    <g>
        <path d="M3.549.09a3.5 3.5 0 0 0-1.143.216l1.885 1.88c.387.386.387 1 0 1.387l-.711.708a.98.98 0 0 1-1.39 0L.303 2.401a3.473 3.473 0 0 0-.216 1.14 3.456 3.456 0 0 0 3.46 3.452 3.5 3.5 0 0 0 1.144-.216l1.174 1.171a2.472 2.465 0 0 1 .062 0l2.07-2.064-1.205-1.202a3.46 3.46 0 0 0 .217-1.14A3.456 3.456 0 0 0 3.549.09zm6.55 7.89l-2.07 2.064a2.472 2.465 0 0 1 .031.092l1.144 1.14a3.474 3.474 0 0 0-.217 1.14 3.456 3.456 0 0 0 3.461 3.452c.434 0 .854-.102 1.236-.247l-2.008-2.003a1.01 1.01 0 0 1 0-1.417l.68-.678a1.03 1.03 0 0 1 .71-.308c.253 0 .517.115.71.308l1.947 1.941c.105-.33.186-.683.186-1.047a3.456 3.456 0 0 0-3.46-3.452 3.5 3.5 0 0 0-1.144.216L10.1 7.979z" overflow="visible"/>
        <path d="M13.858 0l-1.542 1.438c-.452.42-.53 1.148-.267 1.706L6.161 9.14a1.492 1.488 0 0 0-.031 0 1.492 1.488 0 0 0-.84-.148 1.492 1.488 0 0 0-.867.44L.477 13.43a1.494 1.49 0 1 0 2.13 2.09l3.946-3.997a1.492 1.488 0 0 0 .297-1.738l5.888-5.965c.558.249 1.273.147 1.707-.292l1.417-1.56L13.858 0z" overflow="visible"/>
    </g>

</symbol>
<symbol id="view-more" viewBox="0 0 16 16">
    <title>
        Gnome Symbolic Icon Theme
    </title>
    <g transform="translate(-121 -867)">
        <rect x="127" y="867" width="4" height="4" rx=".385" ry=".502"/>
        <rect x="127" y="873" width="4" height="4" rx=".385" ry=".502"/>
        <rect x="127" y="879" width="4" height="4" rx=".385" ry=".502"/>
    </g>

</symbol>
<symbol id="pause" viewBox="0 0 16 16">
    <title>
        Gnome Symbolic Icon Theme
    </title>
    <path d="M4 4v8h3V4H4zm5 0v8h3V4H9z"/>

</symbol>
<symbol id="play" viewBox="0 0 16 16">
    <title>
        Gnome Symbolic Icon Theme
    </title>
    <path d="M4 3v10h1a1 1 0 0 0 .5-.125l7-4c.31-.172.469-.523.469-.875s-.158-.703-.469-.875l-7-4A.996.996 0 0 0 5 3h-.094z"/>

</symbol>
<symbol id="stop" viewBox="0 0 16 16">
    <title>
        Gnome Symbolic Icon Theme
    </title>
    <path d="M4 4v8h8V4z"/>

</symbol>
<symbol id="freecodecamp" viewBox="0 0 100.00001 67.371197">
    <path d="M0 32.41C0 21.974 3.567 12.727 10.832 4.537c2.642-3.038 4.756-4.49 6.21-4.49.527 0 1.055.13 1.452.527s.66.793.66 1.32c0 .794-.924 1.982-2.774 3.832C8.85 12.99 5.02 21.974 5.02 32.674c0 11.89 3.962 21.532 11.756 28.93 1.585 1.453 2.378 2.642 2.378 3.567 0 .53-.264 1.057-.66 1.454s-.925.66-1.454.66c-1.85 0-4.36-2.113-7.66-6.34-6.342-7.8-9.38-17.3-9.38-28.5zm100 2.6c0 10.436-3.567 19.683-10.832 27.873-2.642 3.038-4.756 4.49-6.21 4.49-.527 0-1.055-.13-1.452-.527s-.66-.925-.66-1.453c0-.793.924-1.982 2.774-3.7 7.53-7.264 11.36-16.247 11.36-26.947 0-11.89-3.962-21.532-11.756-28.93-1.585-1.453-2.378-2.642-2.378-3.567 0-.53.264-1.057.66-1.454s.925-.66 1.454-.66c1.717 0 4.36 2.113 7.66 6.34C96.83 14.402 100 23.913 100 35.01zm-30.063 27.9h-34.7c-1.1 0-2.1-.9-2.1-2.1s.9-2.1 2.1-2.1h34.7c1.1 0 2.1.9 2.1 2.1s-.9 2.1-2.1 2.1zm-4.882-41.7c-.74-2.488-1.902-4.823-3.702-6.684-.476-.493-.987-.953-1.495-1.412-.4-.36-1.387-.944-1.593-1.428 1.05 2.468 2.1 5.03 1.308 7.735-.358 1.226-1.712 4.158-3.476 3.41-1.67-.707-1.474-4.204-1.618-5.617-.354-3.467-1.12-6.927-2.968-9.927-1.008-1.635-2.327-3.09-3.987-4.074-2.182-1.295-4.444-2.165-6.925-1.227.546-.207 1.985 1.448 2.254 1.766.87 1.032 1.594 2.252 1.982 3.55.788 2.634.1 5.635-.82 8.146-1.905 5.198-5.084 9.873-6.61 15.218-.532 1.863-.897 3.778-.997 5.715-.314 6.1 2.854 11.69 7.872 15.104 1.138.774 3.163 1.744 4.605 1.245-4.212-2.254-5.612-4.104-6.263-6.755-1.508-6.147 4.244-10.05 6.73-14.91.664-1.295 1.144-2.717.977-4.185-.062-.547-.685-3.238-1.51-3.105 2.503-.402 4.134 1.265 4.99 3.44.904 2.29 1.44 4.645 1.04 7.08-.132.817-.745 3.363.435 3.528 1.625.228 3.02-1.927 2.686-4.007a49.71 49.71 0 0 1-.34-2.448c1.725 2.127 2.507 4.255 2.76 6.59.454 4.176-1.326 9.667-4.673 13.076 1.407-1.434 3.198-2.425 4.557-3.955 1.388-1.564 2.447-3.37 3.275-5.285 1.852-4.28 2.935-9.12 2.633-13.797-.143-2.23-.468-4.57-1.128-6.788z"/>

</symbol></svg>