<svg xmlns="http://www.w3.org/2000/svg" height="490.016" width="482.343" viewBox="0 0 127.623 129.648">
    <g transform="translate(-30.567 -76.969)">
        <g stroke="#cdcdcd">
            <ellipse rx="63.5" ry="58.586" cy="147.72" cx="94.378" stroke-width=".623" fill="red"/>
            <path d="M52.272 104.39c7.27-4.494 19.714-8.45 26.278-5.296-.539 2.999-5.197 9.035-8.223 13.706 6.604-4.08 12.368-9.946 20.284-11.24 8.91-.747 9.284.342 20.32 9.321.589-4.075-5.02-6.522-5.039-11.513 1.62-4.453 14.292-3.523 23.027-.855-7.361-5.798-12.365-6.454-26.392-8.85.77-4.137-.128-8.287 1.355-10.821-.98.417-2.965-.677-4.459-1.29-.092 4.629-3.049 8.928-4.204 11.606-23.186-.267-36.26 7.487-42.947 15.23z" stroke-width=".792" fill="#62a52d"/>
        </g>
        <ellipse rx="41.468" ry="37.245" stroke="gray" cy="147.72" cx="94.378" stroke-width="1.456" fill="#f7f7f7"/>
        <ellipse rx="37.242" transform="matrix(.99972 -.02351 .02914 .99958 0 0)" stroke="#000" ry="33.455" cy="149.9" cx="90.035" stroke-width="4.003" fill="#f7f7f7"/>
        <path stroke-width=".728" stroke="red" d="M89.498 152.73l28.922-30.56"/>
        <ellipse rx="1.536" transform="rotate(223.43)" ry="1.379" cy="-42.477" cx="-169.99" fill="#62a52d"/>
    </g>
</svg>
